<?xml version="1.0" encoding="UTF-8" standalone="no"?>
<!DOCTYPE svg PUBLIC "-//W3C//DTD SVG 1.1//EN" "http://www.w3.org/Graphics/SVG/1.1/DTD/svg11.dtd">
<svg width="100%" height="100%" viewBox="0 0 2538 380" version="1.1" xmlns="http://www.w3.org/2000/svg" xmlns:xlink="http://www.w3.org/1999/xlink" xml:space="preserve" xmlns:serif="http://www.serif.com/" style="fill-rule:evenodd;clip-rule:evenodd;stroke-linejoin:round;stroke-miterlimit:2;">
    <g id="White" transform="matrix(2.47474,0,0,0.895436,-8966.6,-878.561)">
        <rect x="3623.25" y="981.154" width="1025.2" height="424.262" style="fill:none;"/>
        <g transform="matrix(1,0,0,1,2.72848e-12,57.464)">
            <g transform="matrix(0.404083,0,0,1.11677,3462.58,-1213.79)">
                <path d="M725.9,2242.26L449.218,2242.26L449.218,1965.58L725.9,1965.58L725.9,2242.26ZM500.865,2017.23L500.865,2190.62L674.253,2190.62L674.253,2017.23L500.865,2017.23ZM595.586,2083.07L613.563,2065.09L625.78,2077.31L607.803,2095.28L633.226,2095.28L633.226,2112.56L607.803,2112.56L625.78,2130.54L613.563,2142.76L595.586,2124.78L595.586,2150.2L578.309,2150.2L578.309,2124.78L560.332,2142.76L548.115,2130.54L566.092,2112.56L540.669,2112.56L540.669,2095.28L566.092,2095.28L548.115,2077.31L560.332,2065.09L578.309,2083.07L578.309,2057.64L595.586,2057.64L595.586,2083.07Z" style="fill:rgb(250,250,250);fill-rule:nonzero;"/>
                <g transform="matrix(1,0,0,1,7.51887,-3.63798e-12)">
                    <path d="M821.628,2129.75L821.628,2242.26L769.981,2242.26L769.981,1965.58L1046.66,1965.58L1046.66,2129.75L821.628,2129.75ZM821.628,2017.23L821.628,2078.1L995.016,2078.1L995.016,2017.23L821.628,2017.23Z" style="fill:rgb(250,250,250);fill-rule:nonzero;"/>
                </g>
                <g transform="matrix(1,0,0,1,33.7144,0)">
                    <path d="M2281.97,1965.63L2281.97,1965.58L2333.61,1965.58L2333.61,2242.26L2281.97,2242.26L2281.97,2129.75L2108.58,2129.75L2108.58,2242.26C2108.58,2242.26 2056.93,2242.26 2056.93,2242.26L2056.93,2017.23L2056.91,2017.23L2056.91,1965.63L2056.93,1965.63L2056.93,1965.58L2108.58,1965.58L2108.58,1965.63L2281.97,1965.63ZM2108.58,2017.23L2108.58,2078.1L2281.97,2078.1L2281.97,2017.23L2108.58,2017.23Z" style="fill:rgb(250,250,250);fill-rule:nonzero;"/>
                </g>
                <g transform="matrix(1,0,0,1,41.9778,0)">
                    <path d="M2602,1965.63L2602,1965.58L2653.65,1965.58L2653.65,2242.26L2376.97,2242.26L2376.97,2017.23L2376.95,2017.23L2376.95,1965.63L2376.97,1965.63L2376.97,1965.58L2428.62,1965.58L2428.62,1965.63L2602,1965.63ZM2428.62,2129.75L2428.62,2190.62L2602,2190.62L2602,2129.75L2428.62,2129.75ZM2428.62,2017.23L2428.62,2078.1L2602,2078.1L2602,2017.23L2428.62,2017.23Z" style="fill:rgb(250,250,250);fill-rule:nonzero;"/>
                </g>
                <g transform="matrix(1,0,0,1,16.6643,0)">
                    <path d="M1694.08,2242.26L1642.43,2242.26L1642.43,2017.23L1469.05,2017.23L1469.05,2242.26L1417.4,2242.26L1417.4,1965.58L1694.08,1965.58L1694.08,2242.26Z" style="fill:rgb(250,250,250);fill-rule:nonzero;"/>
                </g>
                <g transform="matrix(1,0,0,1,18.8342,0)">
                    <path d="M1856.03,2017.23L1743.51,2017.23L1743.51,1965.58L2020.19,1965.58L2020.19,2017.23L1907.68,2017.23L1907.68,2242.26L1856.03,2242.26L1856.03,2017.23Z" style="fill:rgb(250,250,250);fill-rule:nonzero;"/>
                </g>
                <g transform="matrix(1,0,0,1,20.7674,0)">
                    <path d="M1361.7,1965.58L1361.7,2017.23L1136.66,2017.23L1136.66,2078.1L1361.7,2078.1L1361.7,2129.75L1136.66,2129.75L1136.66,2190.62L1361.7,2190.62L1361.7,2242.26L1085.02,2242.26L1085.02,1965.58L1361.7,1965.58Z" style="fill:rgb(250,250,250);fill-rule:nonzero;"/>
                </g>
            </g>
            <g transform="matrix(2.54849e-17,1.15026,-3.19878,5.41326e-16,11812.5,390.11)">
                <rect x="730.118" y="2246.13" width="50.098" height="17.164" style="fill:rgb(250,250,250);"/>
            </g>
        </g>
    </g>
</svg>
